<svg width="1000" height="1000" xmlns="http://www.w3.org/2000/svg">
<rect x="0" y="0" width="200" height="200" fill="#000000" stroke="none"/>
<rect x="200" y="0" width="200" height="200" fill="#000000" stroke="none"/>
<rect x="400" y="0" width="200" height="200" fill="#000000" stroke="none"/>
<rect x="600" y="0" width="200" height="200" fill="#000000" stroke="none"/>
<rect x="800" y="0" width="200" height="200" fill="#000000" stroke="none"/>
<rect x="0" y="200" width="200" height="200" fill="#000000" stroke="none"/>
<rect x="200" y="200" width="200" height="200" fill="#ffffff" stroke="none"/>
<rect x="400" y="200" width="200" height="200" fill="#000000" stroke="none"/>
<rect x="600" y="200" width="200" height="200" fill="#ffffff" stroke="none"/>
<rect x="800" y="200" width="200" height="200" fill="#000000" stroke="none"/>
<rect x="0" y="400" width="200" height="200" fill="#000000" stroke="none"/>
<rect x="200" y="400" width="200" height="200" fill="#000000" stroke="none"/>
<rect x="400" y="400" width="200" height="200" fill="#000000" stroke="none"/>
<rect x="600" y="400" width="200" height="200" fill="#000000" stroke="none"/>
<rect x="800" y="400" width="200" height="200" fill="#000000" stroke="none"/>
<rect x="0" y="600" width="200" height="200" fill="#000000" stroke="none"/>
<rect x="200" y="600" width="200" height="200" fill="#ffffff" stroke="none"/>
<rect x="400" y="600" width="200" height="200" fill="#000000" stroke="none"/>
<rect x="600" y="600" width="200" height="200" fill="#ffffff" stroke="none"/>
<rect x="800" y="600" width="200" height="200" fill="#000000" stroke="none"/>
<rect x="0" y="800" width="200" height="200" fill="#000000" stroke="none"/>
<rect x="200" y="800" width="200" height="200" fill="#000000" stroke="none"/>
<rect x="400" y="800" width="200" height="200" fill="#000000" stroke="none"/>
<rect x="600" y="800" width="200" height="200" fill="#000000" stroke="none"/>
<rect x="800" y="800" width="200" height="200" fill="#000000" stroke="none"/>
</svg>